<svg width="35" height="35" viewBox="0 0 35 35" fill="none" xmlns="http://www.w3.org/2000/svg">
<rect x="35" y="35" width="35" height="35" rx="17.5" transform="rotate(-180 35 35)" fill="white"/>
<path d="M5.83334 17.5L5.12623 18.2071L4.41912 17.5L5.12623 16.7929L5.83334 17.5ZM27.7083 16.5C28.2606 16.5 28.7083 16.9477 28.7083 17.5C28.7083 18.0523 28.2606 18.5 27.7083 18.5L27.7083 16.5ZM14.5833 26.25L13.8762 26.9571L5.12623 18.2071L5.83334 17.5L6.54044 16.7929L15.2904 25.5429L14.5833 26.25ZM5.83334 17.5L5.12623 16.7929L13.8762 8.04289L14.5833 8.75L15.2904 9.45711L6.54044 18.2071L5.83334 17.5ZM5.83334 17.5L5.83334 16.5L27.7083 16.5L27.7083 17.5L27.7083 18.5L5.83334 18.5L5.83334 17.5Z" fill="#33363F"/>
</svg>
