<svg xmlns="http://www.w3.org/2000/svg" version="1.1" xmlns:xlink="http://www.w3.org/1999/xlink" width="158" height="147"><svg width="158" height="147" viewBox="0 0 158 147" fill="none" xmlns="http://www.w3.org/2000/svg">
<path d="M58.776 120.159C58.776 120.159 77.42 105.465 101.989 105.149C101.989 105.149 112.417 105.149 123.635 110.521C134.853 115.893 144.965 114.392 153.102 105.86C153.102 105.86 132.957 127.427 106.966 115.024C106.966 115.024 91.087 103.174 58.697 120.238H58.776V120.159Z" fill="#2C5F98"></path>
<path d="M120.791 126.084H16.985V10.3486H120.791L120.949 25.4376" stroke="#AC8973" stroke-width="2" stroke-miterlimit="10"></path>
<path d="M41.159 19.1182H49.533L63.595 56.9592L80.343 19.1182H87.848L63.358 72.5222L41.159 19.1182Z" fill="black"></path>
<path d="M21.567 100.804L32.864 19.1182H38.157L63.437 82.0022L92.114 19.1182H100.093L109.573 100.804H93.852L89.349 45.8202L66.36 95.6692H58.776L37.288 47.4792L31.758 100.804H21.567Z" fill="black"></path>
<path d="M42.186 105.149C42.186 105.149 60.83 90.4547 85.399 90.1387C85.399 90.1387 95.827 90.1387 107.045 95.5107C118.263 100.883 128.375 99.3817 136.512 90.8497C136.512 90.8497 116.367 112.417 90.376 100.014C90.376 100.014 74.497 88.1637 42.107 105.228L42.186 105.149Z" fill="#3EA3BC"></path>
<path d="M22.278 90.1389C22.278 90.1389 40.922 75.4449 65.491 75.1289C65.491 75.1289 75.919 75.1289 87.137 80.5009C98.355 85.8729 108.467 84.3719 116.604 75.8399C116.604 75.8399 96.459 97.4069 70.468 85.0039C70.468 85.0039 54.589 73.1539 22.199 90.2179L22.278 90.1389Z" fill="#A6DADD"></path>
<path d="M105.939 42.4226L107.519 30.8096L113.286 32.2316L111.548 44.0026L105.939 42.4226Z" fill="#FBD576"></path>
<path d="M115.182 44.7933L119.369 34.4443L124.346 37.4463L119.764 48.1903L115.182 44.7933Z" fill="#FBD576"></path>
<path d="M124.346 50.7184L130.429 41.3174L134.458 45.8204L128.138 54.1154L124.346 50.7184Z" fill="#FBD576"></path>
<path d="M132.246 58.3806L139.988 51.3496L142.832 54.8256L135.248 62.3306L132.246 58.3806Z" fill="#FBD576"></path>
<path d="M138.171 67.7821L146.703 62.3311L148.836 66.6761L139.988 71.8111L138.171 67.7821Z" fill="#FBD576"></path>
<path d="M142.358 78.7635L152.154 76.3145L153.102 80.8965L143.227 83.4245L142.358 78.7635Z" fill="#FBD576"></path>
<path d="M144.175 89.2695H154.445V93.6145L144.175 94.0095V89.2695Z" fill="#FBD576"></path>
<path d="M107.44 56.2484L109.573 48.1904L112.575 49.3754L109.968 57.9864L107.44 56.2484Z" fill="#FBD576"></path>
<path d="M115.182 59.4079L119.053 53.0879L121.186 54.1149L117.315 61.4619L115.182 59.4079Z" fill="#FBD576"></path>
<path d="M121.186 64.6223L126.084 57.9863L127.98 60.5933L123.003 66.6763L121.186 64.6223Z" fill="#FBD576"></path>
<path d="M126.163 71.3368L132.641 66.6758L133.826 68.9668L127.98 73.7068L126.163 71.3368Z" fill="#FBD576"></path>
<path d="M130.034 78.3678L137.539 75.0498L138.487 77.8938L131.535 81.5278L130.034 78.3678Z" fill="#FBD576"></path>
<path d="M132.957 87.2159L140.383 86.5049V89.2699L132.957 90.1389V87.2159Z" fill="#FBD576"></path>
<path d="M107.677 67.0715L109.573 61.1465L111.548 62.3315L109.573 68.3355L107.677 67.0715Z" fill="#FBD576"></path>
<path d="M112.575 70.2307L116.209 65.0957L117.631 67.0707L114.234 71.8107L112.575 70.2307Z" fill="#FBD576"></path>
<path d="M116.999 74.1024L121.186 70.2314L122.371 71.8114L118.184 75.8404L116.999 74.1024Z" fill="#FBD576"></path>
<path d="M120.159 79.3948L125.136 75.8398L125.847 77.6568L121.186 80.8168L120.159 79.3948Z" fill="#FBD576"></path>
<path d="M122.371 85.3202L127.98 82.9502V85.0042L123.003 87.0582L122.371 85.3202Z" fill="#FBD576"></path>
<path d="M129.402 91.6396H123.635V93.5356H129.402V91.6396Z" fill="#FBD576"></path>
<path d="M106.966 75.0495L108.546 71.8105L109.573 72.5215L107.677 76.3135L106.966 75.0495Z" fill="#FBD576"></path>
<path d="M109.968 78.2888L113.049 75.0498L113.839 76.3138L110.916 79.3948L109.968 78.2888Z" fill="#FBD576"></path>
<path d="M112.97 81.5276L116.446 78.6836L116.604 80.2636L113.839 82.3176L112.97 81.5276Z" fill="#FBD576"></path>
<path d="M114.787 85.7944L118.579 83.8984L119.448 84.8464L115.577 86.7424L114.787 85.7944Z" fill="#FBD576"></path>
<path d="M116.288 89.5069L120.396 88.7959V90.1389L116.288 90.6919V89.5069Z" fill="#FBD576"></path>
<path d="M116.841 93.9307L120.712 94.3257V95.8267L116.841 95.3527V93.9307Z" fill="#FBD576"></path>
<path d="M21.883 116.92L22.515 116.446C22.989 117.473 23.463 117.947 24.016 117.947C24.569 117.947 24.727 117.789 24.964 117.473C25.201 117.157 25.359 116.762 25.359 116.367C25.359 115.972 25.28 115.656 25.043 115.261C24.806 114.866 24.411 114.471 23.937 113.997C23.463 113.523 23.068 113.128 22.91 112.891C22.752 112.654 22.594 112.417 22.515 112.101C22.436 111.785 22.357 111.548 22.357 111.232C22.357 110.6 22.515 110.126 22.831 109.731C23.147 109.336 23.621 109.099 24.095 109.099C24.569 109.099 24.885 109.257 25.122 109.494C25.438 109.731 25.754 110.126 25.991 110.6L25.359 111.153C25.201 110.837 24.964 110.521 24.727 110.363C24.49 110.126 24.253 110.047 23.937 110.047C23.621 110.047 23.384 110.126 23.226 110.363C23.068 110.6 22.91 110.837 22.91 111.232C22.91 111.627 22.989 111.864 23.147 112.101C23.305 112.338 23.7 112.733 24.253 113.286C24.885 113.839 25.28 114.313 25.517 114.787C25.754 115.261 25.912 115.735 25.912 116.288C25.912 116.841 25.675 117.552 25.28 118.026C24.885 118.5 24.411 118.737 23.858 118.737C22.91 118.737 22.12 118.105 21.567 116.762L21.883 116.92Z" fill="black"></path>
<path d="M27.808 118.104C27.808 117.867 27.808 117.709 27.966 117.551C28.124 117.393 28.203 117.314 28.44 117.314C28.677 117.314 28.756 117.314 28.835 117.551C28.993 117.709 28.993 117.867 28.993 118.104C28.993 118.341 28.993 118.499 28.835 118.657C28.677 118.815 28.598 118.894 28.44 118.894C28.282 118.894 28.124 118.894 27.966 118.657C27.808 118.499 27.808 118.341 27.808 118.104Z" fill="black"></path>
<path d="M30.652 109.415H32.153C32.943 109.415 33.575 109.415 33.812 109.573C34.128 109.652 34.365 109.81 34.602 110.047C34.839 110.284 34.997 110.521 35.076 110.837C35.234 111.153 35.234 111.548 35.234 111.943C35.234 112.733 34.997 113.365 34.602 113.839C34.128 114.313 33.496 114.471 32.706 114.471L35.392 118.737H34.444L31.758 114.471H31.363V118.737H30.652V109.494V109.415ZM31.363 110.363V113.523H32.627C33.259 113.523 33.733 113.444 34.049 113.128C34.365 112.891 34.523 112.496 34.523 111.943C34.523 111.39 34.365 110.995 34.049 110.758C33.733 110.521 33.259 110.363 32.706 110.363H31.363Z" fill="black"></path>
<path d="M36.893 118.104C36.893 117.867 36.893 117.709 37.051 117.551C37.209 117.393 37.288 117.314 37.525 117.314C37.762 117.314 37.841 117.314 37.92 117.551C38.078 117.709 38.078 117.867 38.078 118.104C38.078 118.341 38.078 118.499 37.92 118.657C37.762 118.815 37.683 118.894 37.525 118.894C37.367 118.894 37.209 118.894 37.051 118.657C36.893 118.499 36.893 118.341 36.893 118.104Z" fill="black"></path>
<path d="M47.4 110.995L46.847 111.706C46.452 111.232 45.978 110.837 45.504 110.521C45.03 110.284 44.477 110.126 44.003 110.126C43.529 110.126 42.976 110.284 42.423 110.679C41.87 110.995 41.475 111.469 41.238 112.101C40.922 112.733 40.764 113.365 40.764 114.076C40.764 115.182 41.08 116.13 41.712 116.92C42.344 117.71 43.134 118.105 44.161 118.105C45.188 118.105 45.504 117.868 46.057 117.315C46.61 116.762 46.926 116.051 47.005 115.182H44.635V114.313H47.795C47.795 115.814 47.4 116.92 46.768 117.71C46.136 118.5 45.188 118.974 44.082 118.974C42.976 118.974 41.791 118.5 41.08 117.552C40.369 116.604 39.974 115.419 39.974 114.155C39.974 112.891 40.369 111.706 41.08 110.758C41.87 109.81 42.818 109.336 44.082 109.336C45.346 109.336 46.452 109.968 47.4 111.074V110.995Z" fill="black"></path>
<path d="M48.743 118.104C48.743 117.867 48.743 117.709 48.901 117.551C49.059 117.393 49.138 117.314 49.375 117.314C49.612 117.314 49.691 117.314 49.77 117.551C49.928 117.709 49.928 117.867 49.928 118.104C49.928 118.341 49.928 118.499 49.77 118.657C49.612 118.815 49.533 118.894 49.375 118.894C49.217 118.894 49.059 118.894 48.901 118.657C48.743 118.499 48.743 118.341 48.743 118.104Z" fill="black"></path>
</svg><style>@media (prefers-color-scheme: light) { :root { filter: none; } }
@media (prefers-color-scheme: dark) { :root { filter: none; } }
</style></svg>