<svg width="29" height="29" viewBox="0 0 29 29" fill="none" xmlns="http://www.w3.org/2000/svg">
<rect width="29" height="29" rx="14.5" fill="white"/>
<path d="M24.1667 14.5L24.8738 13.7929L25.5809 14.5L24.8738 15.2071L24.1667 14.5ZM6.04169 15.5C5.4894 15.5 5.04169 15.0523 5.04169 14.5C5.04169 13.9477 5.4894 13.5 6.04169 13.5V15.5ZM16.9167 7.25L17.6238 6.54289L24.8738 13.7929L24.1667 14.5L23.4596 15.2071L16.2096 7.95711L16.9167 7.25ZM24.1667 14.5L24.8738 15.2071L17.6238 22.4571L16.9167 21.75L16.2096 21.0429L23.4596 13.7929L24.1667 14.5ZM24.1667 14.5V15.5H6.04169V14.5V13.5H24.1667V14.5Z" fill="#33363F"/>
</svg>
